<?xml version="1.0" encoding="UTF-8"?>
<svg id="Layer_2" data-name="Layer 2" xmlns="http://www.w3.org/2000/svg" xmlns:xlink="http://www.w3.org/1999/xlink" viewBox="0 0 783.5 93.38">
  <defs>
    <style>
      .cls-1 {
        fill: url(#Spectrum_-9);
      }

      .cls-2 {
        fill: url(#Spectrum_-4);
      }

      .cls-3 {
        fill: url(#Spectrum_-3);
      }

      .cls-4 {
        fill: url(#Spectrum_-5);
      }

      .cls-5 {
        fill: url(#Spectrum_-6);
      }

      .cls-6 {
        fill: url(#Spectrum_-2);
      }

      .cls-7 {
        fill: url(#Spectrum_-7);
      }

      .cls-8 {
        fill: url(#Spectrum_-8);
      }

      .cls-9 {
        opacity: .1;
      }

      .cls-10 {
        fill: url(#Spectrum_);
      }

      .cls-11 {
        fill: url(#Spectrum_-30);
      }

      .cls-12 {
        fill: url(#Spectrum_-31);
      }

      .cls-13 {
        fill: url(#Spectrum_-32);
      }

      .cls-14 {
        fill: url(#Spectrum_-19);
      }

      .cls-15 {
        fill: url(#Spectrum_-11);
      }

      .cls-16 {
        fill: url(#Spectrum_-17);
      }

      .cls-17 {
        fill: url(#Spectrum_-10);
      }

      .cls-18 {
        fill: url(#Spectrum_-15);
      }

      .cls-19 {
        fill: url(#Spectrum_-12);
      }

      .cls-20 {
        fill: url(#Spectrum_-18);
      }

      .cls-21 {
        fill: url(#Spectrum_-13);
      }

      .cls-22 {
        fill: url(#Spectrum_-14);
      }

      .cls-23 {
        fill: url(#Spectrum_-16);
      }

      .cls-24 {
        fill: url(#Spectrum_-23);
      }

      .cls-25 {
        fill: url(#Spectrum_-26);
      }

      .cls-26 {
        fill: url(#Spectrum_-25);
      }

      .cls-27 {
        fill: url(#Spectrum_-20);
      }

      .cls-28 {
        fill: url(#Spectrum_-22);
      }

      .cls-29 {
        fill: url(#Spectrum_-29);
      }

      .cls-30 {
        fill: url(#Spectrum_-24);
      }

      .cls-31 {
        fill: url(#Spectrum_-21);
      }

      .cls-32 {
        fill: url(#Spectrum_-28);
      }

      .cls-33 {
        fill: url(#Spectrum_-27);
      }

      .cls-34 {
        opacity: .16;
      }

      .cls-35 {
        opacity: .13;
      }

      .cls-36 {
        opacity: .22;
      }

      .cls-37 {
        opacity: .19;
      }

      .cls-38 {
        opacity: .33;
      }

      .cls-39 {
        opacity: .3;
      }

      .cls-40 {
        opacity: .25;
      }

      .cls-41 {
        opacity: .27;
      }

      .cls-42 {
        opacity: .45;
      }

      .cls-43 {
        opacity: .42;
      }

      .cls-44 {
        opacity: .39;
      }

      .cls-45 {
        opacity: .36;
      }

      .cls-46 {
        opacity: .65;
      }

      .cls-47 {
        opacity: .68;
      }

      .cls-48 {
        opacity: .59;
      }

      .cls-49 {
        opacity: .62;
      }

      .cls-50 {
        opacity: .51;
      }

      .cls-51 {
        opacity: .54;
      }

      .cls-52 {
        opacity: .56;
      }

      .cls-53 {
        opacity: .48;
      }

      .cls-54 {
        opacity: .88;
      }

      .cls-55 {
        opacity: .91;
      }

      .cls-56 {
        opacity: .83;
      }

      .cls-57 {
        opacity: .85;
      }

      .cls-58 {
        opacity: .77;
      }

      .cls-59 {
        opacity: .74;
      }

      .cls-60 {
        opacity: .8;
      }

      .cls-61 {
        opacity: .71;
      }

      .cls-62 {
        opacity: .94;
      }

      .cls-63 {
        opacity: .97;
      }
    </style>
    <linearGradient id="Spectrum_" data-name="Spectrum " x1="-3400.16" y1="296.88" x2="-2624.97" y2="296.88" gradientTransform="translate(-2630.17 -107.57) rotate(-171.23)" gradientUnits="userSpaceOnUse">
      <stop offset="0" stop-color="#00a8de"/>
      <stop offset=".2" stop-color="#333391"/>
      <stop offset=".4" stop-color="#e91388"/>
      <stop offset=".6" stop-color="#eb2d2e"/>
      <stop offset=".8" stop-color="#fde92b"/>
      <stop offset="1" stop-color="#009e54"/>
    </linearGradient>
    <linearGradient id="Spectrum_-2" data-name="Spectrum " x1="-3400.16" y1="296.24" x2="-2624.97" y2="296.24" xlink:href="#Spectrum_"/>
    <linearGradient id="Spectrum_-3" data-name="Spectrum " x1="-3400.16" y1="295.59" x2="-2624.97" y2="295.59" xlink:href="#Spectrum_"/>
    <linearGradient id="Spectrum_-4" data-name="Spectrum " x1="-3400.16" y1="294.94" x2="-2624.97" y2="294.94" xlink:href="#Spectrum_"/>
    <linearGradient id="Spectrum_-5" data-name="Spectrum " x1="-3400.16" y1="294.28" x2="-2624.97" y2="294.28" xlink:href="#Spectrum_"/>
    <linearGradient id="Spectrum_-6" data-name="Spectrum " x1="-3400.16" y1="293.62" x2="-2624.97" y2="293.62" xlink:href="#Spectrum_"/>
    <linearGradient id="Spectrum_-7" data-name="Spectrum " x1="-3400.16" y1="293.32" x2="-2624.97" y2="293.32" xlink:href="#Spectrum_"/>
    <linearGradient id="Spectrum_-8" data-name="Spectrum " x1="-3400.16" y1="293.5" x2="-2624.97" y2="293.5" xlink:href="#Spectrum_"/>
    <linearGradient id="Spectrum_-9" data-name="Spectrum " x1="-3400.16" y1="293.54" x2="-2624.97" y2="293.54" xlink:href="#Spectrum_"/>
    <linearGradient id="Spectrum_-10" data-name="Spectrum " x1="-3400.16" y1="293.56" x2="-2624.96" y2="293.56" xlink:href="#Spectrum_"/>
    <linearGradient id="Spectrum_-11" data-name="Spectrum " x1="-3400.16" y1="293.57" x2="-2624.97" y2="293.57" xlink:href="#Spectrum_"/>
    <linearGradient id="Spectrum_-12" data-name="Spectrum " x1="-3400.16" y1="293.59" x2="-2624.97" y2="293.59" xlink:href="#Spectrum_"/>
    <linearGradient id="Spectrum_-13" data-name="Spectrum " x1="-3400.16" y1="293.6" x2="-2624.97" y2="293.6" xlink:href="#Spectrum_"/>
    <linearGradient id="Spectrum_-14" data-name="Spectrum " x1="-3400.16" y1="293.62" x2="-2624.96" y2="293.62" xlink:href="#Spectrum_"/>
    <linearGradient id="Spectrum_-15" data-name="Spectrum " x1="-3400.16" y1="293.63" x2="-2624.97" y2="293.63" xlink:href="#Spectrum_"/>
    <linearGradient id="Spectrum_-16" data-name="Spectrum " x1="-3400.16" y1="293.65" x2="-2624.97" y2="293.65" xlink:href="#Spectrum_"/>
    <linearGradient id="Spectrum_-17" data-name="Spectrum " x1="-3400.16" y1="293.66" x2="-2624.97" y2="293.66" xlink:href="#Spectrum_"/>
    <linearGradient id="Spectrum_-18" data-name="Spectrum " x1="-3400.16" y1="293.67" x2="-2624.97" y2="293.67" xlink:href="#Spectrum_"/>
    <linearGradient id="Spectrum_-19" data-name="Spectrum " x1="-3400.16" y1="293.63" x2="-2624.97" y2="293.63" xlink:href="#Spectrum_"/>
    <linearGradient id="Spectrum_-20" data-name="Spectrum " x1="-3400.16" y1="293.54" x2="-2624.97" y2="293.54" xlink:href="#Spectrum_"/>
    <linearGradient id="Spectrum_-21" data-name="Spectrum " x1="-3400.16" y1="293.44" x2="-2624.97" y2="293.44" xlink:href="#Spectrum_"/>
    <linearGradient id="Spectrum_-22" data-name="Spectrum " x1="-3400.16" y1="293.35" x2="-2624.97" y2="293.35" xlink:href="#Spectrum_"/>
    <linearGradient id="Spectrum_-23" data-name="Spectrum " x1="-3400.16" y1="293.24" x2="-2624.97" y2="293.24" xlink:href="#Spectrum_"/>
    <linearGradient id="Spectrum_-24" data-name="Spectrum " x1="-3400.16" y1="293.18" x2="-2624.97" y2="293.18" xlink:href="#Spectrum_"/>
    <linearGradient id="Spectrum_-25" data-name="Spectrum " x1="-3400.16" y1="294.05" x2="-2624.97" y2="294.05" xlink:href="#Spectrum_"/>
    <linearGradient id="Spectrum_-26" data-name="Spectrum " x1="-3400.16" y1="294.9" x2="-2624.97" y2="294.9" xlink:href="#Spectrum_"/>
    <linearGradient id="Spectrum_-27" data-name="Spectrum " x1="-3400.16" y1="295.78" x2="-2624.97" y2="295.78" xlink:href="#Spectrum_"/>
    <linearGradient id="Spectrum_-28" data-name="Spectrum " x1="-3400.16" y1="296.66" x2="-2624.97" y2="296.66" xlink:href="#Spectrum_"/>
    <linearGradient id="Spectrum_-29" data-name="Spectrum " x1="-3400.16" y1="297.54" x2="-2624.97" y2="297.54" xlink:href="#Spectrum_"/>
    <linearGradient id="Spectrum_-30" data-name="Spectrum " x1="-3400.16" y1="298.42" x2="-2624.97" y2="298.42" xlink:href="#Spectrum_"/>
    <linearGradient id="Spectrum_-31" data-name="Spectrum " x1="-3400.16" y1="299.3" x2="-2624.97" y2="299.3" xlink:href="#Spectrum_"/>
    <linearGradient id="Spectrum_-32" data-name="Spectrum " x1="-3400.16" y1="300.18" x2="-2624.97" y2="300.18" xlink:href="#Spectrum_"/>
  </defs>
  <g id="Layer_1-2" data-name="Layer 1">
    <g>
      <g class="cls-9">
        <path class="cls-10" d="M372.61,83.99c-1.64,0-3.11-.31-4.41-.94-7.63-3.67-8.52-17.53-9.46-32.21-1.16-18.15-2.36-36.92-15.48-41.32-18.54-6.22-34.65,9.84-51.71,26.84-5.28,5.27-10.75,10.72-16.29,15.45-25.87,22.09-39.97,16.77-54.9,11.13-12.19-4.6-24.8-9.36-44.79,.74-6.91,3.49-13.74-2.31-20.98-8.45-3.08-2.62-6.27-5.32-9.46-7.24-10.8-6.5-18.7,1.19-27.84,10.1-11.16,10.88-23.81,23.21-45.61,14.79C29.38,56.53,19.76,57.73,2.28,59.91l-2.06,.26c-.11,.01-.21-.06-.22-.17-.01-.11,.06-.21,.17-.22l2.06-.25c16.96-2.11,27.2-3.39,69.59,12.99,21.55,8.33,34.11-3.91,45.19-14.7,9.26-9.02,17.26-16.82,28.32-10.16,3.22,1.93,6.42,4.65,9.51,7.28,7.13,6.05,13.87,11.78,20.54,8.4,20.15-10.18,32.84-5.39,45.12-.76,14.82,5.59,28.82,10.87,54.5-11.06,5.53-4.72,10.99-10.17,16.27-15.43,17.15-17.09,33.34-33.24,52.12-26.94,13.37,4.49,14.58,23.39,15.75,41.67,.93,14.56,1.81,28.32,9.23,31.88,5.18,2.49,13.2-.17,24.52-8.1,4.35-3.05,8.06-5.85,11.33-8.32,16.74-12.65,23-17.38,52.83-8.53,26.72,7.93,36.95-8.82,45.97-23.6,6.96-11.4,13.53-22.18,26.64-19.45,17.45,3.64,25.9,14.12,34.85,25.23,9.23,11.45,19.69,24.43,41.9,31.85,23.83,7.97,44.79,2.47,69.06-3.9,29.09-7.64,62.06-16.29,107.9-2.51,.11,.03,.17,.14,.13,.25-.03,.11-.14,.17-.25,.13-45.73-13.75-78.65-5.11-107.68,2.51-24.33,6.39-45.34,11.9-69.28,3.89-22.32-7.46-32.82-20.49-42.08-31.98-8.9-11.04-17.31-21.48-34.62-25.09-12.82-2.68-19.03,7.49-26.21,19.26-9.1,14.9-19.41,31.79-46.42,23.78-29.63-8.79-35.85-4.09-52.47,8.47-3.27,2.47-6.98,5.27-11.34,8.33-8.66,6.07-15.43,9.07-20.52,9.07Z"/>
      </g>
      <g class="cls-35">
        <path class="cls-6" d="M373.67,83.48c-1.51,0-2.87-.27-4.08-.82-7.53-3.4-8.71-16.79-9.96-30.96-1.51-17.13-3.22-36.55-16.82-40.62-19.42-5.81-35.88,9.66-53.31,26.05-4.87,4.58-9.91,9.32-15.03,13.58-25.93,21.57-39.62,17.18-54.11,12.53-11.79-3.78-23.97-7.69-43.84,1.41-7.25,3.32-13.63-2.53-20.38-8.72-3.29-3.01-6.69-6.13-10.25-8.18-10.69-6.15-18.42,1.41-27.37,10.17-10.95,10.72-23.37,22.87-45.03,14.99C29.02,56.74,18.8,57.95,.22,60.16c-.11,0-.21-.07-.22-.18-.01-.11,.07-.21,.18-.22,18.63-2.22,28.9-3.44,73.44,12.76,21.42,7.8,33.74-4.26,44.61-14.9,9.06-8.87,16.89-16.53,27.85-10.23,3.59,2.07,7.01,5.2,10.32,8.23,6.65,6.1,12.94,11.86,19.94,8.65,20.01-9.16,32.27-5.23,44.13-1.42,14.38,4.61,27.96,8.97,53.73-12.46,5.12-4.25,10.15-8.99,15.02-13.56,17.51-16.47,34.06-32.02,53.7-26.14,13.86,4.15,15.58,23.71,17.11,40.97,1.24,14.06,2.41,27.33,9.72,30.63,5.25,2.37,13.34-.56,24.74-8.96,3.98-2.93,7.42-5.64,10.46-8.02,16.74-13.15,23.01-18.07,52.71-9.44,26.52,7.61,36.77-7.91,45.81-21.6,6.99-10.59,13.6-20.58,26.67-17.79,17.43,3.72,26.02,13.44,35.13,23.73,9.35,10.57,19.94,22.54,41.94,30.43,24.69,8.85,45.97,3.32,70.61-3.1,28.5-7.42,60.81-15.82,105.55-2.21,.11,.03,.17,.14,.13,.25-.03,.11-.14,.17-.25,.13-44.63-13.58-76.88-5.19-105.33,2.21-24.71,6.43-46.05,11.98-70.85,3.09-22.1-7.92-32.73-19.94-42.1-30.54-9.45-10.69-17.61-19.92-34.91-23.6-12.81-2.75-19.03,6.69-26.25,17.62-9.12,13.8-19.45,29.45-46.25,21.76-29.51-8.58-35.73-3.69-52.35,9.37-3.04,2.39-6.49,5.09-10.47,8.03-8.93,6.58-15.87,9.83-21.06,9.83Z"/>
      </g>
      <g class="cls-34">
        <path class="cls-3" d="M374.74,83.02c-1.38,0-2.64-.24-3.78-.72-7.43-3.14-8.89-16.07-10.44-29.76-1.92-16.95-4.09-36.17-18.18-39.9-20.44-5.42-37.35,9.55-55.25,25.4-4.36,3.86-8.86,7.84-13.45,11.56-26.04,21.08-39.34,17.59-53.42,13.89-11.38-2.99-23.15-6.07-42.79,2.11-7.63,3.18-13.65-2.78-20.02-9.1-3.41-3.38-6.93-6.87-10.8-8.99-10.58-5.81-18.14,1.62-26.89,10.22-10.75,10.57-22.93,22.55-44.46,15.2C32.33,58.3,20.58,57.81,.22,60.16c-.11,0-.21-.07-.22-.18-.01-.11,.07-.21,.18-.22,20.43-2.36,32.2-1.87,75.23,12.78,21.29,7.27,33.38-4.62,44.05-15.1,8.87-8.72,16.52-16.25,27.36-10.29,3.92,2.15,7.46,5.66,10.88,9.06,6.27,6.22,12.2,12.09,19.59,9.02,19.76-8.24,31.6-5.13,43.04-2.13,13.98,3.67,27.18,7.13,53.07-13.82,4.58-3.71,9.08-7.69,13.44-11.55,17.98-15.92,34.96-30.95,55.61-25.48,14.35,3.8,16.54,23.16,18.47,40.24,1.53,13.57,2.98,26.38,10.2,29.43,5.33,2.25,13.5-.97,24.97-9.85,3.58-2.77,6.74-5.35,9.53-7.62,17.22-14.04,23.02-18.77,52.66-10.45,26.29,7.38,36.57-6.93,45.63-19.55,7.03-9.79,13.68-19.04,26.71-16.17,17.45,3.81,25.82,12.37,35.5,22.29,9.45,9.68,20.16,20.65,41.88,28.95,25.54,9.76,47.12,4.19,72.12-2.26,27.93-7.21,59.58-15.38,103.24-1.94,.11,.03,.16,.14,.13,.25-.03,.11-.14,.16-.25,.13-43.56-13.41-75.15-5.26-103.03,1.94-25.06,6.47-46.7,12.06-72.36,2.25-21.8-8.33-32.55-19.34-42.02-29.05-9.64-9.87-17.96-18.4-35.3-22.18-12.78-2.81-19.05,5.91-26.3,16.01-9.14,12.73-19.5,27.15-46.07,19.7-29.44-8.26-35.2-3.57-52.3,10.37-2.79,2.27-5.94,4.85-9.53,7.62-9.19,7.11-16.31,10.62-21.59,10.62Z"/>
      </g>
      <g class="cls-37">
        <path class="cls-2" d="M375.81,82.59c-1.27,0-2.43-.21-3.48-.63-7.33-2.89-9.07-15.38-10.9-28.6-2.33-16.77-4.97-35.78-19.54-39.17-21.67-5.03-39.15,9.54-57.66,24.98-3.69,3.07-7.5,6.25-11.38,9.31-26.19,20.61-38.54,18.12-52.85,15.23-10.47-2.11-22.33-4.51-41.61,2.83-8.06,3.07-13.77-3.07-19.83-9.56-3.46-3.71-7.04-7.55-11.18-9.73-10.46-5.49-17.85,1.81-26.4,10.27-10.55,10.42-22.5,22.23-43.9,15.42C33.75,59.2,21.12,57.81,.22,60.16c-.11,0-.21-.07-.22-.18-.01-.11,.07-.21,.18-.22,20.97-2.36,33.62-.97,77.02,12.8,21.16,6.74,33.03-4.98,43.49-15.32,8.67-8.57,16.16-15.97,26.87-10.34,4.2,2.2,7.8,6.07,11.29,9.81,5.96,6.4,11.59,12.43,19.4,9.46,19.39-7.38,31.32-4.97,41.83-2.85,14.21,2.87,26.47,5.34,52.52-15.15,3.88-3.05,7.69-6.23,11.37-9.3,18.59-15.5,36.14-30.14,58.01-25.06,14.84,3.45,17.5,22.6,19.85,39.5,1.82,13.1,3.54,25.47,10.65,28.28,5.41,2.13,13.66-1.39,25.21-10.76,3.22-2.61,6.1-5.06,8.65-7.21,17.22-14.59,23.02-19.5,52.56-11.46,26.08,7.1,36.37-5.98,45.46-17.52,7.07-8.98,13.75-17.47,26.75-14.52,17.56,3.92,26.12,11.8,36.02,20.94,9.53,8.78,20.33,18.74,41.67,27.39,26.39,10.7,48.26,5.09,73.57-1.41,27.36-7.02,58.36-14.98,101-1.69,.11,.03,.16,.15,.13,.25-.03,.1-.14,.16-.25,.13-42.53-13.26-73.47-5.31-100.78,1.69-24.33,6.24-47.3,12.14-73.82,1.39-21.41-8.68-32.24-18.66-41.79-27.47-9.86-9.09-18.38-16.94-35.84-20.84-12.76-2.89-19.06,5.11-26.35,14.38-9.16,11.64-19.54,24.83-45.88,17.66-29.33-7.99-35.09-3.11-52.19,11.38-2.55,2.16-5.43,4.6-8.65,7.22-9.45,7.67-16.74,11.45-22.12,11.45Z"/>
      </g>
      <g class="cls-36">
        <path class="cls-4" d="M376.9,82.19c-1.15,0-2.22-.18-3.2-.54-7.25-2.65-9.24-14.71-11.35-27.48-2.74-16.58-5.85-35.38-20.91-38.41-23.19-4.67-40.63,9.05-60.81,24.93-2.78,2.19-5.66,4.45-8.57,6.68-26.42,20.21-38.47,18.52-52.41,16.57-10.07-1.41-21.49-3-40.3,3.55-8.51,2.97-13.97-3.38-19.76-10.09-3.47-4.03-7.06-8.2-11.44-10.39-10.32-5.17-17.54,2-25.91,10.31-10.35,10.28-22.08,21.93-43.34,15.65C37.04,60.69,22.54,57.72,.22,60.16c-.12,.01-.21-.07-.22-.18-.01-.11,.07-.21,.18-.22,22.39-2.46,36.92,.52,78.81,12.82,21.04,6.21,32.68-5.35,42.95-15.55,8.47-8.42,15.79-15.68,26.37-10.38,4.45,2.23,8.07,6.43,11.57,10.49,5.69,6.61,11.07,12.85,19.32,9.98,18.9-6.59,30.37-4.98,40.49-3.57,13.86,1.94,25.83,3.61,52.11-16.5,2.91-2.23,5.79-4.49,8.57-6.68,20.26-15.94,37.76-29.71,61.14-25.01,15.34,3.09,18.47,22.03,21.23,38.74,2.09,12.65,4.07,24.6,11.1,27.17,5.49,2.01,13.82-1.82,25.45-11.71,2.87-2.44,5.48-4.74,7.78-6.77,17.22-15.16,23.02-20.27,52.43-12.51,25.86,6.82,36.18-5.03,45.28-15.49,7.1-8.16,13.81-15.88,26.8-12.88,17.78,4.1,26.58,11.33,36.77,19.71,9.58,7.87,20.44,16.8,41.24,25.71,27.25,11.67,50.42,5.75,74.97-.52,26.8-6.85,57.17-14.6,98.8-1.47,.11,.03,.16,.15,.13,.25-.03,.11-.15,.16-.25,.13-41.52-13.1-71.84-5.36-98.58,1.47-24.61,6.29-47.85,12.22-75.22,.5-20.85-8.93-31.74-17.88-41.34-25.77-10.15-8.34-18.92-15.55-36.61-19.63-12.76-2.94-19.08,4.33-26.41,12.76-9.18,10.55-19.58,22.5-45.68,15.61-29.21-7.71-34.97-2.63-52.07,12.42-2.31,2.03-4.92,4.33-7.79,6.77-9.71,8.25-17.16,12.32-22.64,12.32Z"/>
      </g>
      <g class="cls-40">
        <path class="cls-5" d="M377.99,81.84c-1.05,0-2.03-.15-2.93-.46-7.17-2.43-9.41-14.08-11.79-26.42-3.16-16.39-6.74-34.97-22.29-37.64-25.22-4.33-43.73,9.51-65.17,25.54-1.51,1.12-3.03,2.26-4.57,3.41-26.76,19.87-37.98,19.02-52.17,17.95-9.66-.73-20.61-1.56-38.79,4.24-8.99,2.87-14.23-3.71-19.77-10.67-3.45-4.33-7.01-8.81-11.62-11.01-10.18-4.87-17.23,2.18-25.4,10.34-10.16,10.14-21.67,21.63-42.79,15.88C37.42,61.33,22.67,57.76,.22,60.16c-.11,.01-.21-.07-.22-.18-.01-.11,.07-.21,.18-.22,22.52-2.41,37.29,1.17,80.6,12.84,20.9,5.69,32.33-5.72,42.41-15.78,8.28-8.27,15.43-15.4,25.86-10.42,4.69,2.24,8.28,6.76,11.76,11.12,5.46,6.85,10.62,13.33,19.34,10.54,18.25-5.83,29.25-5,38.94-4.26,14.11,1.07,25.26,1.92,51.9-17.87,1.54-1.14,3.06-2.28,4.57-3.41,21.51-16.08,40.09-29.97,65.47-25.61,15.83,2.72,19.44,21.44,22.62,37.96,2.36,12.22,4.58,23.76,11.53,26.12,5.58,1.89,13.99-2.26,25.7-12.68,2.53-2.25,4.77-4.3,6.94-6.29,17.21-15.76,23.01-21.06,52.29-13.59,25.64,6.54,35.97-4.09,45.09-13.47,7.14-7.35,13.89-14.29,26.86-11.23,18.26,4.31,26.98,10.65,38.02,18.69,9.55,6.95,20.38,14.83,40.31,23.81,28.1,12.66,51.52,6.7,76.31,.38,26.25-6.68,55.99-14.26,96.66-1.27,.1,.03,.16,.15,.13,.25-.03,.1-.15,.16-.25,.13-40.56-12.96-70.25-5.4-96.44,1.27-24.86,6.33-48.35,12.31-76.57-.41-19.97-9-30.82-16.89-40.38-23.85-11-8.01-19.69-14.33-37.87-18.62-12.75-3.01-19.11,3.54-26.48,11.12-9.19,9.46-19.62,20.18-45.47,13.58-29.08-7.42-34.83-2.15-51.93,13.5-2.07,1.89-4.41,4.04-6.94,6.29-9.95,8.86-17.57,13.22-23.16,13.22Z"/>
      </g>
      <g class="cls-41">
        <path class="cls-7" d="M379.18,81.53c-.98,0-1.9-.14-2.77-.41-7.1-2.21-9.47-12.96-12.23-25.4-3.58-16.19-7.64-34.55-23.68-36.85-28.03-4.01-47.51,10.02-70.08,26.28-27.3,19.66-37.75,19.55-52.23,19.39-9.22-.1-19.66-.22-36.98,4.86-9.49,2.78-14.52-4.06-19.86-11.3-3.4-4.62-6.92-9.39-11.73-11.59-10.03-4.57-16.92,2.35-24.9,10.36-9.96,10-21.25,21.34-42.25,16.13-4.06-1-7.88-1.94-11.49-2.83C37.02,61.77,21.51,57.94,.22,60.16c-.1,.02-.21-.07-.22-.18s.07-.21,.18-.22c21.36-2.24,36.89,1.61,70.91,10.02,3.61,.89,7.43,1.84,11.49,2.83,20.78,5.16,31.99-6.1,41.87-16.02,8.08-8.12,15.07-15.13,25.34-10.44,4.91,2.24,8.45,7.05,11.89,11.71,5.25,7.12,10.2,13.85,19.42,11.15,17.38-5.09,27.86-4.98,37.1-4.88,14.39,.17,24.8,.27,52-19.31,22.64-16.31,42.19-30.39,70.37-26.35,16.32,2.34,20.41,20.84,24.02,37.16,2.61,11.81,5.08,22.97,11.95,25.1,5.68,1.77,14.17-2.71,25.94-13.68,2.21-2.05,4.19-3.94,6.11-5.77,17.2-16.38,23-21.89,52.14-14.71,25.4,6.25,35.75-3.16,44.89-11.46,7.18-6.53,13.97-12.7,26.93-9.57,19.24,4.65,28.07,10.3,40.29,18.12,8.89,5.69,19.96,12.77,38.36,21.46,28.95,13.68,52.58,7.67,77.6,1.31,25.71-6.54,54.84-13.94,94.57-1.09,.1,.03,.16,.15,.13,.25-.03,.11-.15,.16-.25,.13-39.62-12.82-68.69-5.42-94.35,1.1-25.09,6.38-48.8,12.4-77.87-1.34-18.42-8.71-29.5-15.79-38.4-21.49-12.19-7.8-21-13.43-40.17-18.07-12.76-3.08-19.16,2.74-26.57,9.48-9.21,8.37-19.65,17.86-45.25,11.56-28.93-7.12-34.22-2.08-51.77,14.62-1.92,1.83-3.91,3.72-6.11,5.78-10.29,9.59-17.89,14.18-23.57,14.18Z"/>
      </g>
      <g class="cls-39">
        <path class="cls-8" d="M380.29,81.25c-.88,0-1.72-.11-2.51-.34-7.04-2-9.64-12.39-12.65-24.43-4.01-15.99-8.54-34.12-25.08-36.04-29.07-3.39-48.3,8.16-70.43,23.61-28.16,19.66-37.97,20.19-52.8,20.99-8.27,.44-18.56,1-34.66,5.32-10.01,2.69-14.85-4.43-19.99-11.95-3.34-4.89-6.78-9.95-11.79-12.13-9.86-4.29-16.59,2.51-24.38,10.37-9.77,9.87-20.85,21.05-41.72,16.38-8.27-1.83-15.68-3.55-22.22-5.06C34.82,61.64,19.81,58.16,.22,60.16c-.12,.01-.21-.07-.22-.18-.01-.11,.07-.21,.18-.22,19.66-2.02,34.69,1.48,61.97,7.81,6.54,1.52,13.94,3.24,22.21,5.06,20.65,4.62,31.65-6.48,41.35-16.28,7.89-7.97,14.71-14.85,24.82-10.46,5.11,2.22,8.6,7.33,11.96,12.27,5.05,7.41,9.82,14.41,19.55,11.79,16.15-4.34,26.46-4.89,34.75-5.34,14.77-.79,24.53-1.32,52.6-20.92,22.19-15.49,41.5-27.08,70.7-23.68,16.81,1.96,21.38,20.22,25.42,36.34,2.98,11.92,5.56,22.21,12.37,24.14,5.78,1.64,14.34-3.17,26.19-14.71,1.89-1.85,3.65-3.59,5.3-5.22,8.7-8.62,14.45-14.31,21.65-16.99,7.19-2.67,15.68-2.36,30.31,1.11,25.15,5.97,35.52-2.23,44.67-9.46,7.23-5.71,14.06-11.11,27.02-7.9,21.52,5.33,30.02,10.12,45.45,18.83,8.19,4.62,18.38,10.36,33.51,17.84,29.79,14.73,53.62,8.67,78.85,2.26,25.18-6.4,53.71-13.65,92.53-.93,.1,.03,.16,.15,.13,.25-.03,.11-.15,.16-.25,.13-38.71-12.68-67.18-5.44-92.31,.94-25.3,6.43-49.2,12.5-79.12-2.29-15.14-7.48-25.33-13.23-33.52-17.85-15.4-8.69-23.89-13.47-45.35-18.79-12.77-3.16-19.21,1.93-26.67,7.83-9.22,7.29-19.68,15.55-45.01,9.54-28.77-6.82-34.06-1.59-51.59,15.77-1.65,1.63-3.41,3.38-5.3,5.22-10.52,10.25-18.27,15.15-24.07,15.15Z"/>
      </g>
      <g class="cls-38">
        <path class="cls-1" d="M381.41,80.99c-.79,0-1.54-.09-2.26-.28-6.98-1.79-9.81-11.85-13.08-23.5-4.43-15.79-9.46-33.68-26.47-35.22-29.5-2.67-47.64,5.3-70.77,20.94-29.64,20.04-38.42,21.05-54.37,22.89-7.62,.88-17.1,1.97-31.35,5.48-10.53,2.59-15.42-5.15-20.15-12.64-3.26-5.16-6.62-10.49-11.82-12.63-9.7-4.01-16.26,2.65-23.86,10.37-9.59,9.74-20.46,20.78-41.19,16.65-11.36-2.22-21.05-4.38-29.59-6.29C33.67,61.68,18.59,58.32,.22,60.16c-.11,0-.21-.07-.22-.18-.01-.11,.07-.21,.18-.22,18.43-1.85,33.54,1.52,56.4,6.61,8.54,1.9,18.22,4.06,29.58,6.28,20.52,4.09,31.31-6.87,40.82-16.54,7.7-7.82,14.35-14.58,24.3-10.46,5.31,2.2,8.71,7.58,12,12.79,4.87,7.71,9.47,14.99,19.72,12.47,14.28-3.51,23.77-4.61,31.4-5.49,15.88-1.83,24.63-2.84,54.19-22.83,23.21-15.69,41.41-23.69,71.03-21,17.29,1.57,22.35,19.6,26.82,35.51,3.24,11.53,6.03,21.48,12.79,23.22,5.88,1.51,14.53-3.65,26.43-15.77,1.6-1.62,3.09-3.17,4.51-4.63,17.62-18.16,22.94-23.64,51.76-17.07,24.88,5.67,35.27-1.31,44.44-7.47,7.59-5.1,14.15-9.51,27.12-6.22,28.1,7.12,34.83,10.63,63.14,25.38,4.7,2.45,10.02,5.22,16.13,8.37,30.63,15.79,54.63,9.69,80.04,3.23,25.86-6.58,52.6-13.38,90.54-.79,.1,.04,.16,.15,.13,.25-.04,.1-.15,.16-.25,.13-37.82-12.55-64.51-5.76-90.31,.8-25.48,6.48-49.55,12.6-80.32-3.26-6.11-3.15-11.44-5.92-16.13-8.37-28.97-15.09-35-18.24-63.06-25.35-12.79-3.24-19.29,1.12-26.8,6.17-9.23,6.2-19.7,13.24-44.75,7.53-28.61-6.52-33.89-1.08-51.39,16.96-1.42,1.46-2.92,3-4.51,4.63-10.75,10.94-18.64,16.16-24.55,16.16Z"/>
      </g>
      <g class="cls-45">
        <path class="cls-17" d="M382.54,80.78c-.7,0-1.37-.08-2.02-.22-6.94-1.59-9.98-11.33-13.51-22.61-4.87-15.58-10.38-33.23-27.88-34.38-29.33-1.93-47.27,2.68-71.12,18.27-32.35,21.15-38.85,22.24-58.16,25.47-6.54,1.1-14.68,2.46-25.82,4.96-11.08,2.49-15.79-5.57-20.35-13.36-3.16-5.41-6.44-11-11.81-13.11-9.53-3.74-15.93,2.8-23.33,10.37-8.94,9.14-20.06,20.51-40.66,16.92-13.64-2.33-24.95-4.79-34.94-6.96-20.44-4.45-35.22-7.67-52.72-5.95-.11,.01-.21-.07-.22-.18-.01-.11,.07-.21,.18-.22,17.57-1.73,32.37,1.5,52.85,5.96,9.98,2.17,21.29,4.64,34.92,6.96,20.4,3.56,30.97-7.26,40.31-16.8,7.51-7.68,13.98-14.31,23.77-10.46,5.5,2.16,8.81,7.82,12.01,13.28,4.69,8.02,9.13,15.6,19.92,13.17,11.14-2.51,19.29-3.87,25.84-4.97,19.24-3.22,25.73-4.31,58-25.41,23.93-15.65,41.94-20.27,71.36-18.33,17.77,1.17,23.33,18.96,28.23,34.66,3.49,11.16,6.5,20.8,13.21,22.34,6.07,1.39,14.55-3.96,26.67-16.86,1.31-1.39,2.55-2.73,3.74-4,17.59-18.87,22.9-24.56,51.55-18.3,24.59,5.37,34.99-.4,44.16-5.49,7.65-4.24,14.26-7.91,27.26-4.54,4.05,1.05,7.72,1.97,10.95,2.79,23.04,5.8,30.8,7.75,68.64,28.05,31.47,16.88,55.62,10.73,81.19,4.21,25.33-6.46,51.52-13.13,88.6-.67,.1,.04,.16,.15,.13,.25-.04,.1-.15,.16-.25,.13-36.96-12.42-63.1-5.76-88.37,.68-25.64,6.54-49.87,12.71-81.48-4.25-37.79-20.27-45.54-22.22-68.55-28.01-3.23-.81-6.9-1.74-10.95-2.79-12.85-3.33-19.39,.3-26.97,4.5-9.24,5.12-19.71,10.93-44.44,5.53-28.43-6.21-33.7-.55-51.17,18.18-1.19,1.27-2.43,2.61-3.74,4-10.96,11.66-19,17.2-25.03,17.2Z"/>
      </g>
      <g class="cls-44">
        <path class="cls-15" d="M383.67,80.6c-.62,0-1.21-.06-1.79-.18-6.9-1.4-10.16-10.84-13.93-21.77-5.3-15.36-11.31-32.77-29.28-33.53-30.91-1.3-47.68,.57-71.46,15.6-37.51,23.7-39.22,24.03-67.79,29.62-4.18,.82-8.92,1.74-14.43,2.87-11.63,2.38-16.17-6-20.57-14.1-3.06-5.65-6.23-11.5-11.79-13.57-9.36-3.49-15.59,2.92-22.81,10.34-8.76,9.01-19.67,20.22-40.13,17.21-15.16-2.23-27.64-4.92-38.66-7.3-18.88-4.07-33.79-7.28-50.81-5.64-.1,.01-.21-.07-.22-.18-.01-.11,.07-.21,.18-.22,17.08-1.64,32.02,1.57,50.93,5.65,11.01,2.37,23.49,5.06,38.63,7.29,20.26,2.98,30.64-7.69,39.79-17.1,7.31-7.52,13.63-14.02,23.24-10.44,5.69,2.12,8.9,8.03,12,13.75,4.53,8.34,8.8,16.23,20.14,13.9,5.52-1.13,10.25-2.06,14.43-2.87,28.5-5.57,30.21-5.91,67.66-29.57,23.88-15.08,40.69-16.97,71.7-15.66,18.24,.77,24.3,18.32,29.64,33.8,3.73,10.81,6.96,20.15,13.64,21.51,6.18,1.26,14.73-4.46,26.91-17.98,1.04-1.15,2.03-2.26,2.99-3.33,17.55-19.6,22.85-25.52,51.32-19.58,24.24,5.06,34.65,.5,43.84-3.52,7.73-3.38,14.4-6.3,27.46-2.84,8.55,2.27,15.19,3.61,21.05,4.79,16.36,3.3,27.18,5.48,58.86,23.13,32.3,18,56.58,11.79,82.29,5.21,24.81-6.34,50.46-12.9,86.7-.57,.1,.04,.16,.15,.12,.25-.04,.1-.15,.16-.25,.12-36.13-12.3-61.72-5.76-86.47,.57-25.78,6.59-50.14,12.82-82.58-5.25-31.63-17.62-42.41-19.79-58.74-23.09-5.86-1.18-12.51-2.52-21.07-4.79-12.93-3.43-19.54-.54-27.19,2.82-9.24,4.05-19.71,8.63-44.08,3.54-28.24-5.9-33.5-.02-50.94,19.45-.96,1.07-1.95,2.18-2.99,3.33-11.16,12.4-19.34,18.28-25.5,18.28Z"/>
      </g>
      <g class="cls-43">
        <path class="cls-19" d="M384.82,80.45c-.53,0-1.05-.05-1.55-.13-6.88-1.21-10.35-10.37-14.37-20.97-5.74-15.14-12.25-32.31-30.69-32.67-2.09-.04-4.11-.09-6.08-.13-26.64-.6-42.72-.96-65.73,13.06-7.04,4.29-12.67,7.82-17.64,10.94-24.49,15.36-27.05,16.96-62.84,23.62-12.19,2.26-16.57-6.45-20.81-14.87-2.96-5.89-6.02-11.97-11.74-13.99-9.18-3.24-15.25,3.05-22.28,10.32-8.59,8.9-19.28,19.96-39.61,17.5-16.45-2-30-4.91-41.96-7.49-18.27-3.93-32.7-7.04-49.31-5.47-.12,0-.21-.07-.22-.18-.01-.11,.07-.21,.18-.22,16.67-1.58,31.13,1.53,49.43,5.48,11.95,2.57,25.49,5.49,41.92,7.48,20.14,2.45,30.75-8.55,39.28-17.38,7.12-7.38,13.28-13.75,22.7-10.42,5.88,2.08,8.97,8.23,11.97,14.19,4.17,8.29,8.48,16.87,20.38,14.66,35.71-6.64,38.26-8.24,62.7-23.56,4.97-3.12,10.61-6.65,17.64-10.94,23.11-14.08,39.23-13.72,65.95-13.12,1.97,.04,3.99,.09,6.08,.13,18.71,.37,25.27,17.66,31.05,32.93,3.98,10.48,7.41,19.54,14.07,20.71,6.3,1.11,14.92-4.96,27.13-19.12,.77-.9,1.52-1.77,2.25-2.62,17.51-20.37,22.8-26.52,51.07-20.9,23.83,4.74,34.24,1.38,43.43-1.57,7.82-2.52,14.57-4.69,27.74-1.11,10.26,2.79,17.91,3.79,24.67,4.68,14.14,1.86,26.35,3.46,55.55,20.32,33.13,19.13,57.52,12.86,83.34,6.22,24.29-6.24,49.41-12.7,84.85-.47,.1,.04,.16,.15,.12,.25-.04,.1-.15,.16-.25,.12-35.32-12.18-60.38-5.75-84.62,.48-25.9,6.66-50.37,12.94-83.64-6.27-29.14-16.82-40.73-18.35-55.41-20.27-6.77-.89-14.43-1.9-24.72-4.69-13.06-3.55-19.76-1.39-27.51,1.11-9.23,2.97-19.7,6.34-43.63,1.58-28.04-5.57-33.29,.53-50.68,20.76-.73,.85-1.48,1.72-2.25,2.62-11.35,13.16-19.66,19.39-25.95,19.39Z"/>
      </g>
      <g class="cls-42">
        <path class="cls-21" d="M385.99,80.33c-.45,0-.89-.03-1.32-.1-6.87-1.03-10.55-9.91-14.81-20.2-6.18-14.9-13.18-31.79-32.03-31.79-.26,0-.51,0-.77,0-5.89,0-11.19-.16-16.32-.32-20.48-.63-35.28-1.08-55.14,10.58-12.14,7.13-20.24,12.57-26.75,16.94-15.81,10.62-21.73,14.6-51.98,19.67-12.76,2.14-16.98-6.91-21.06-15.66-2.98-6.39-5.79-12.43-11.69-14.4-8.99-3.01-14.62,2.87-21.74,10.3-8.42,8.78-18.9,19.71-39.1,17.79-17.43-1.66-31.91-4.79-44.68-7.56-17.19-3.72-32.04-6.94-48.39-5.42-.12,0-.21-.07-.22-.18-.01-.11,.07-.21,.18-.22,16.41-1.53,31.28,1.7,48.51,5.43,12.76,2.76,27.22,5.9,44.63,7.55,20.01,1.91,30.41-8.95,38.77-17.67,6.93-7.23,12.92-13.49,22.16-10.4,6.06,2.02,9.04,8.42,11.92,14.61,4.02,8.62,8.17,17.53,20.63,15.44,30.16-5.06,36.06-9.02,51.82-19.61,6.51-4.38,14.62-9.82,26.77-16.96,19.96-11.73,34.81-11.27,55.35-10.64,5.33,.16,10.84,.33,17,.32h.07c19.11,0,26.17,17.02,32.4,32.04,4.22,10.17,7.86,18.96,14.5,19.96,6.43,.97,15.12-5.49,27.35-20.29l1.53-1.86c17.46-21.17,22.73-27.55,50.8-22.26,23.27,4.39,33.67,2.24,42.85,.34,7.95-1.65,14.82-3.07,28.19,.65,11.03,3.07,18.85,3.5,26.41,3.92,14.04,.78,26.16,1.46,54.13,18.16,33.95,20.28,58.43,13.95,84.35,7.25,23.79-6.15,48.39-12.51,83.04-.4,.1,.04,.16,.15,.12,.25-.04,.1-.15,.16-.25,.12-34.54-12.07-59.08-5.73-82.81,.41-26,6.72-50.56,13.07-84.66-7.3-27.89-16.66-39.96-17.33-53.94-18.11-7.58-.42-15.42-.86-26.49-3.94-13.27-3.69-20.1-2.28-28-.64-9.21,1.91-19.65,4.07-43-.34-27.83-5.25-33.07,1.1-50.42,22.12l-1.53,1.86c-11.52,13.95-19.97,20.53-26.39,20.53Z"/>
      </g>
      <g class="cls-53">
        <path class="cls-22" d="M387.16,80.24c-.37,0-.74-.02-1.1-.07-6.86-.85-10.76-9.48-15.27-19.47-6.63-14.7-14.17-31.36-33.51-30.91-8.87,.21-16.7-.26-23.6-.67-17.32-1.03-31-1.85-48.9,8.27-14.73,8.32-23.36,14.8-30.3,20-12.55,9.41-19.46,14.59-46.68,18.68-13.33,2.01-17.39-7.39-21.31-16.47-2.86-6.62-5.56-12.88-11.62-14.79-8.81-2.77-14.28,2.98-21.21,10.26-8.25,8.67-18.52,19.47-38.58,18.09-18.19-1.25-33.49-4.6-46.99-7.55-17-3.72-31.68-6.93-47.88-5.45-.11,.01-.21-.07-.22-.18-.01-.11,.07-.21,.18-.22,16.25-1.49,30.97,1.73,48,5.46,13.49,2.95,28.77,6.3,46.93,7.54,19.89,1.37,30.07-9.35,38.27-17.97,6.74-7.09,12.57-13.22,21.62-10.37,6.24,1.96,8.97,8.3,11.87,15.01,3.86,8.95,7.86,18.2,20.89,16.24,27.12-4.08,34-9.24,46.5-18.61,6.95-5.21,15.59-11.69,30.34-20.02,18-10.18,31.74-9.36,49.12-8.32,6.9,.41,14.72,.88,23.57,.67,.25,0,.5,0,.74,0,19.08,0,26.86,17.25,33.14,31.15,4.46,9.88,8.31,18.42,14.95,19.24,6.56,.81,15.31-6.02,27.55-21.49l.83-1.05c17.4-22,22.66-28.64,50.51-23.67,22.43,4,33.24,2.98,41.92,2.17,8.51-.8,15.23-1.43,28.98,2.48,11.42,3.24,19.54,3.07,27.39,2.91,13.47-.29,26.2-.56,53.46,16.26,34.76,21.45,59.32,15.06,85.32,8.29,23.3-6.06,47.39-12.34,81.28-.33,.1,.04,.16,.15,.12,.26-.04,.1-.15,.16-.26,.12-33.77-11.96-57.81-5.71-81.05,.34-26.08,6.79-50.72,13.2-85.63-8.34-27.16-16.76-39.83-16.49-53.24-16.21-7.88,.17-16.03,.34-27.51-2.92-13.68-3.89-20.37-3.26-28.84-2.47-8.71,.81-19.54,1.83-42.03-2.18-14.01-2.49-22.1-2.04-28.86,1.62-6.89,3.73-12.61,10.96-21.27,21.91l-.83,1.05c-11.68,14.76-20.25,21.7-26.82,21.7Z"/>
      </g>
      <g class="cls-50">
        <path class="cls-18" d="M388.35,80.18c-.29,0-.58-.01-.87-.04-6.87-.67-10.97-9.06-15.73-18.77-7.08-14.47-15.12-30.87-34.92-30.02-10.79,.47-19.93-.45-27.99-1.26-15.79-1.58-28.26-2.83-44.86,6.18-16.09,8.74-24.77,16.09-31.73,22-10.89,9.24-18.09,15.34-43.5,18.73-13.91,1.85-17.81-7.89-21.58-17.31-2.74-6.84-5.32-13.31-11.55-15.15-8.62-2.55-13.93,3.09-20.67,10.22-8.08,8.57-18.13,19.23-38.07,18.4-18.78-.79-34.84-4.34-49.01-7.49-16.22-3.59-31.53-6.99-47.66-5.54-.11,0-.21-.07-.22-.18,0-.11,.07-.21,.18-.22,16.19-1.46,31.53,1.94,47.78,5.55,14.15,3.14,30.2,6.69,48.94,7.48,19.76,.82,29.74-9.76,37.77-18.27,6.56-6.95,12.22-12.95,21.07-10.33,6.41,1.9,9.03,8.45,11.81,15.39,3.71,9.28,7.55,18.87,21.16,17.06,25.29-3.37,32.45-9.45,43.29-18.64,6.98-5.92,15.67-13.29,31.8-22.05,16.71-9.07,29.24-7.82,45.09-6.23,8.05,.81,17.17,1.72,27.93,1.26,20.04-.87,28.51,16.38,35.3,30.24,4.7,9.61,8.77,17.9,15.41,18.55,6.68,.65,15.5-6.57,27.75-22.71l.15-.19c17.34-22.86,22.58-29.76,50.21-25.14,20.83,3.49,31.49,3.66,40.04,3.81,9.35,.16,16.1,.27,30.73,4.52,11.6,3.37,19.94,2.56,27.99,1.77,13.56-1.33,26.36-2.58,53.17,14.49,35.57,22.64,60.19,16.18,86.25,9.35,22.82-5.99,46.41-12.18,79.56-.28,.1,.04,.16,.15,.12,.26-.04,.1-.15,.16-.26,.12-33.03-11.86-56.56-5.68-79.32,.29-26.15,6.86-50.84,13.34-86.56-9.39-26.69-16.99-39.43-15.75-52.92-14.43-8.1,.79-16.47,1.61-28.14-1.78-14.58-4.24-21.31-4.35-30.63-4.5-8.57-.14-19.24-.32-40.1-3.81-27.39-4.59-32.15,1.68-49.83,24.98l-.15,.2c-11.82,15.58-20.52,22.91-27.24,22.91Z"/>
      </g>
      <g class="cls-51">
        <path class="cls-23" d="M389.55,80.16c-.21,0-.43,0-.64-.02-6.88-.49-11.21-8.65-16.21-18.1-7.17-13.54-16.09-30.38-36.33-29.11-12.25,.76-22.28-.71-31.13-2.02-14.15-2.09-26.37-3.9-42.07,4.28-16.84,8.77-25.37,16.97-32.21,23.56-9.9,9.53-17.06,16.41-41.26,19.24-14.5,1.7-18.24-8.4-21.85-18.16-2.61-7.06-5.08-13.72-11.47-15.5-8.42-2.34-13.59,3.19-20.12,10.18-7.92,8.47-17.77,18.99-37.56,18.71-19.24-.28-35.29-3.89-50.81-7.38-16.22-3.65-31.54-7.09-47.66-5.66-.1,.01-.21-.07-.22-.18,0-.11,.07-.21,.18-.22,16.18-1.43,31.53,2.02,47.78,5.67,15.5,3.49,31.53,7.09,50.73,7.37,.26,0,.52,0,.78,0,19.1,0,28.73-10.3,36.48-18.59,6.37-6.81,11.87-12.69,20.52-10.29,6.59,1.83,9.09,8.59,11.74,15.74,3.56,9.62,7.25,19.56,21.43,17.9,24.07-2.82,31.19-9.66,41.03-19.13,6.87-6.6,15.41-14.82,32.31-23.62,15.82-8.24,28.09-6.42,42.31-4.32,8.83,1.3,18.83,2.79,31.04,2.02,20.51-1.28,29.49,15.69,36.71,29.33,4.95,9.35,9.22,17.42,15.89,17.89,6.82,.48,15.69-7.13,27.93-23.96,16.88-23.21,21.97-30.22,49.37-25.94,16.04,2.51,25.85,3.64,33.73,4.54,12.87,1.48,19.33,2.22,36.91,7.45,11.68,3.47,20.17,2,28.38,.57,13.07-2.27,26.58-4.62,53.09,12.77,36.37,23.85,61.03,17.32,87.14,10.41,22.35-5.92,45.45-12.04,77.87-.24,.1,.04,.16,.15,.12,.26-.04,.1-.16,.16-.26,.12-32.31-11.76-55.35-5.66-77.64,.25-26.19,6.94-50.93,13.49-87.46-10.46-26.38-17.3-39.81-14.97-52.81-12.71-8.26,1.43-16.8,2.92-28.57-.58-17.55-5.22-24-5.96-36.85-7.44-7.88-.91-17.7-2.04-33.75-4.55-27.16-4.25-32.22,2.71-48.99,25.78-11.95,16.44-20.76,24.14-27.64,24.14Z"/>
      </g>
      <g class="cls-52">
        <path class="cls-16" d="M390.76,80.16c-.14,0-.27,0-.41,0-6.91-.31-11.45-8.26-16.71-17.47-7.6-13.32-17.06-29.89-37.74-28.21-13.42,1.09-24.09-1.04-33.51-2.92-13.41-2.68-24.98-4.99-40.03,2.51-17.25,8.6-25.19,17.25-32.2,24.88-9.04,9.85-16.18,17.62-39.53,19.98-15.08,1.53-18.67-8.93-22.13-19.03-2.49-7.26-4.84-14.12-11.39-15.82-8.22-2.13-13.24,3.28-19.58,10.13-7.75,8.36-17.39,18.77-37.06,19.03-19.59,.24-36.29-3.56-52.44-7.25-16.28-3.72-31.67-7.23-47.83-5.82-.13,.02-.21-.07-.22-.18,0-.11,.07-.21,.18-.22,16.22-1.42,31.64,2.1,47.95,5.83,16.12,3.68,32.8,7.5,52.35,7.23,19.49-.26,29.07-10.59,36.77-18.9,6.43-6.94,11.52-12.43,19.97-10.24,6.76,1.75,9.15,8.71,11.67,16.08,3.41,9.96,6.93,20.27,21.71,18.76,23.2-2.34,30.29-10.07,39.27-19.85,7.03-7.66,15-16.33,32.32-24.97,15.17-7.56,26.81-5.24,40.29-2.55,9.39,1.88,20.03,4,33.39,2.91,20.93-1.7,30.46,14.99,38.12,28.41,5.2,9.1,9.69,16.97,16.38,17.27,6.96,.3,15.89-7.7,28.09-25.22,16.83-24.16,22.31-30.33,48.38-26.54,37.33,5.42,41.86,6.82,60.94,12.72,2.82,.87,5.96,1.85,9.58,2.94,11.68,3.55,19.92,1.5,28.64-.66,13.19-3.28,26.83-6.67,53.15,11.09,37.17,25.08,61.85,18.47,87.99,11.48,21.88-5.85,44.51-11.91,76.23-.2,.1,.04,.16,.15,.12,.26-.04,.1-.15,.15-.26,.12-31.6-11.66-54.16-5.62-75.99,.21-26.22,7.02-50.99,13.64-88.31-11.54-26.17-17.66-39.72-14.29-52.83-11.03-8.39,2.08-17.07,4.24-28.85,.66-3.61-1.1-6.75-2.07-9.58-2.94-19.05-5.9-23.58-7.3-60.88-12.71-13.42-1.95-21.18-1.14-27.68,2.87-6.6,4.08-12.02,11.59-20.32,23.5-12.06,17.31-20.98,25.4-28.03,25.4Z"/>
      </g>
      <g class="cls-48">
        <path class="cls-20" d="M391.99,80.19c-.06,0-.12,0-.17,0-6.95-.13-11.71-7.88-17.22-16.86-8.04-13.09-18.06-29.4-39.15-27.29-14.39,1.42-25.55-1.41-35.39-3.92-12.84-3.27-23.93-6.09-38.5,.84-17.46,8.31-25.13,17.74-31.9,26.06-8.6,10.57-15.39,18.92-38.08,20.86-15.69,1.35-19.26-9.96-22.41-19.93-2.36-7.46-4.59-14.51-11.3-16.12-8.03-1.93-12.89,3.37-19.03,10.07-7.58,8.26-17.02,18.55-36.55,19.35-19.87,.82-37.2-3.2-53.95-7.09-16.39-3.8-31.88-7.4-48.13-6-.1,0-.21-.07-.22-.18s.07-.21,.18-.22c16.31-1.4,31.83,2.2,48.25,6.01,16.72,3.88,34.02,7.9,53.84,7.08,19.36-.8,28.74-11.02,36.27-19.23,6.24-6.8,11.16-12.17,19.42-10.19,6.94,1.67,9.2,8.82,11.59,16.39,3.26,10.3,6.64,20.95,21.99,19.65,22.52-1.92,29.27-10.21,37.8-20.71,6.79-8.35,14.5-17.82,32.04-26.17,14.7-7,25.85-4.16,38.77-.87,9.81,2.5,20.93,5.33,35.25,3.91,21.36-2.12,31.43,14.29,39.53,27.48,5.45,8.87,10.16,16.54,16.88,16.67,.06,0,.11,0,.17,0,7.08,0,16-8.43,28.07-26.51,8.04-12.04,13.39-19.65,19.96-23.86,6.47-4.14,14.17-5.06,27.44-3.29,29.32,3.91,38.62,7.56,50.39,12.19,5.32,2.09,11.35,4.46,20,7.15,11.64,3.62,19.98,.93,28.81-1.91,13.33-4.3,27.11-8.73,53.3,9.42,37.95,26.32,62.65,19.64,88.8,12.56,21.43-5.8,43.59-11.79,74.62-.18,.1,.04,.16,.15,.12,.26-.04,.1-.15,.16-.26,.12-30.91-11.57-53.01-5.59-74.38,.19-26.24,7.1-51.02,13.8-89.13-12.62-26.02-18.04-39.71-13.63-52.95-9.37-8.89,2.86-17.29,5.57-29.05,1.92-8.67-2.69-14.7-5.06-20.03-7.15-11.75-4.61-21.02-8.26-50.29-12.16-25.58-3.42-30.86,2.77-47.01,26.97-12.15,18.2-21.18,26.69-28.41,26.69Z"/>
      </g>
      <g class="cls-49">
        <path class="cls-14" d="M190.39,80.9c-14.44,0-17.68-11.08-20.54-20.92-2.23-7.65-4.34-14.88-11.22-16.4-7.83-1.74-12.53,3.45-18.49,10-7.42,8.17-16.65,18.33-36.04,19.69-20.09,1.4-38.01-2.83-55.35-6.91-16.54-3.9-32.17-7.58-48.53-6.2-.12,.02-.21-.07-.22-.18,0-.11,.07-.21,.18-.22,16.42-1.39,32.08,2.3,48.66,6.2,17.3,4.08,35.19,8.3,55.23,6.9,19.24-1.34,28.41-11.44,35.77-19.56,6.04-6.65,10.81-11.91,18.87-10.13,7.11,1.57,9.25,8.91,11.52,16.68,3.11,10.65,6.33,21.68,22.28,20.55,21.98-1.54,28.72-10.86,36.52-21.66,6.54-9.04,13.94-19.29,31.57-27.29,14.35-6.51,25.12-3.15,37.59,.74,10.14,3.16,21.62,6.74,36.76,4.97,21.77-2.54,32.4,13.59,40.94,26.55,5.69,8.63,10.61,16.09,17.35,16.09h.06c7.25-.05,16.27-8.89,28.37-27.82,15.38-24.05,20.95-30.85,46.41-27.75,27.17,3.3,37.24,8.33,47.91,13.65,6.12,3.05,12.45,6.21,22.35,9.35,11.57,3.67,19.99,.35,28.91-3.17,13.48-5.32,27.41-10.82,53.51,7.76,38.73,27.57,63.43,20.81,89.58,13.65,20.99-5.75,42.69-11.69,73.05-.17,.1,.04,.16,.15,.12,.26-.04,.1-.16,.16-.26,.12-30.24-11.47-51.88-5.55-72.8,.18-26.24,7.18-51.03,13.97-89.91-13.71-25.92-18.45-39.75-12.99-53.13-7.71-8.99,3.55-17.47,6.9-29.18,3.18-9.92-3.15-16.27-6.32-22.4-9.38-10.64-5.31-20.68-10.32-47.78-13.61-25.23-3.07-30.75,3.68-46.03,27.57-12.18,19.05-21.3,27.95-28.7,28-.02,0-.04,0-.07,0-6.96,0-11.93-7.54-17.68-16.27-8.48-12.87-19.04-28.88-40.56-26.38-15.22,1.77-26.75-1.82-36.93-4.99-12.39-3.86-23.09-7.2-37.3-.75-17.53,7.95-24.91,18.15-31.41,27.16-7.86,10.88-14.65,20.27-36.82,21.82-.74,.05-1.46,.08-2.14,.08Z"/>
      </g>
      <g class="cls-46">
        <path class="cls-27" d="M191.69,81.83c-15.33,0-18.44-11.57-21.19-21.82-2.11-7.84-4.09-15.24-11.13-16.67-7.63-1.55-12.18,3.52-17.94,9.93-7.25,8.07-16.27,18.12-35.54,20.02-20.26,1.99-38.77-2.44-56.66-6.72-16.72-4-32.51-7.79-49.02-6.4-.11,.02-.21-.07-.22-.18s.07-.21,.18-.22c16.57-1.39,32.39,2.4,49.14,6.41,17.86,4.28,36.34,8.7,56.53,6.71,19.11-1.88,28.08-11.87,35.28-19.89,5.85-6.51,10.46-11.65,18.32-10.06,7.28,1.48,9.3,9,11.44,16.96,2.96,11,6.02,22.4,22.56,21.48,21.52-1.18,27.93-11.14,35.36-22.67,6.26-9.72,13.36-20.75,30.98-28.34,14.08-6.07,24.54-2.19,36.65,2.29,10.39,3.85,22.17,8.21,38.03,6.09,22.17-2.95,33.36,12.89,42.35,25.62,5.88,8.33,10.97,15.54,17.66,15.54,.1,0,.2,0,.31,0,7.4-.24,16.45-9.5,28.48-29.14,6.99-11.41,12.44-19.83,19.01-24.34,6.25-4.28,13.65-5.41,26.41-4.02,26.16,2.86,36.19,8.96,46.81,15.43,6.36,3.87,12.93,7.87,23.32,11.24,11.48,3.72,19.97-.23,28.97-4.43,13.63-6.35,27.72-12.92,53.76,6.1,39.5,28.85,64.19,22,90.32,14.75,20.55-5.7,41.8-11.59,71.51-.16,.1,.04,.15,.16,.11,.26-.04,.1-.15,.16-.26,.11-29.59-11.39-50.77-5.51-71.26,.17-26.23,7.27-51,14.14-90.66-14.81-25.85-18.88-39.83-12.36-53.36-6.06-9.07,4.23-17.63,8.22-29.26,4.44-10.43-3.38-17.03-7.4-23.4-11.28-10.58-6.44-20.57-12.53-46.64-15.37-12.65-1.38-19.98-.27-26.14,3.95-6.51,4.46-11.94,12.85-18.9,24.22-12.1,19.77-21.26,29.09-28.81,29.33-.11,0-.21,0-.32,0-6.89,0-12.03-7.29-17.98-15.71-8.93-12.64-20.03-28.38-41.97-25.45-15.96,2.13-27.79-2.25-38.22-6.12-12.03-4.45-22.42-8.3-36.35-2.3-17.51,7.55-24.57,18.51-30.8,28.19-7.48,11.62-13.95,21.66-35.67,22.85-.61,.03-1.21,.05-1.78,.05Z"/>
      </g>
      <g class="cls-47">
        <path class="cls-31" d="M193.05,82.76c-16.27,0-19.25-12.07-21.88-22.76-1.98-8.01-3.85-15.58-11.04-16.91-7.43-1.37-11.83,3.59-17.39,9.86-7.08,7.98-15.9,17.92-35.03,20.36-20.38,2.6-39.46-2.03-57.91-6.52C32.87,62.67,16.88,58.79,.22,60.16c-.12,.02-.21-.07-.22-.18,0-.11,.07-.21,.18-.22,16.73-1.38,32.74,2.51,49.7,6.64,18.41,4.48,37.45,9.11,57.77,6.52,18.98-2.43,27.75-12.3,34.79-20.23,5.65-6.37,10.12-11.4,17.77-9.99,7.45,1.37,9.35,9.06,11.36,17.21,2.67,10.83,5.71,23.11,22.85,22.43,21.14-.84,27.23-11.44,34.29-23.72,5.98-10.4,12.75-22.18,30.3-29.35,13.87-5.66,24.57-1.06,35.89,3.8,10.6,4.56,22.61,9.72,39.12,7.25,22.57-3.37,34.31,12.18,43.75,24.69,6.24,8.26,11.61,15.39,18.53,15,7.56-.44,16.64-10.13,28.57-30.48,14.01-23.91,19.64-31.36,44.44-28.96,25.54,2.46,36.02,10.01,46.16,17.31,6.49,4.68,13.2,9.51,23.84,13.03,11.37,3.77,19.93-.82,28.99-5.68,13.79-7.39,28.04-15.03,54.06,4.44,40.27,30.13,64.93,23.2,91.03,15.86,20.12-5.66,40.93-11.51,70-.16,.1,.04,.15,.16,.11,.26-.04,.1-.16,.15-.26,.11-28.95-11.3-49.69-5.47-69.75,.17-26.2,7.37-50.95,14.33-91.38-15.92-25.81-19.31-39.95-11.73-53.63-4.4-9.14,4.9-17.78,9.53-29.31,5.71-10.69-3.54-17.43-8.4-23.95-13.09-10.09-7.27-20.52-14.78-45.96-17.24-23.36-2.26-29.2,3.44-44.05,28.77-12.17,20.76-21.08,30.23-28.89,30.68-7.12,.41-12.57-6.8-18.87-15.16-9.38-12.42-21.05-27.87-43.37-24.53-16.62,2.49-28.69-2.7-39.34-7.28-11.73-5.04-21.86-9.4-35.58-3.8-17.43,7.11-24.16,18.84-30.11,29.18-7.12,12.38-13.26,23.08-34.62,23.92-.47,.02-.92,.03-1.37,.03Z"/>
      </g>
      <g class="cls-61">
        <path class="cls-28" d="M194.45,83.69c-17.27,0-20.11-12.59-22.63-23.72-1.85-8.18-3.6-15.91-10.95-17.13-7.23-1.19-11.47,3.65-16.85,9.78-6.92,7.89-15.53,17.72-34.53,20.71-20.47,3.23-40.11-1.62-59.1-6.31C33.25,62.79,17.07,58.79,.22,60.16c-.11,0-.21-.07-.22-.18,0-.11,.07-.21,.18-.22,16.92-1.38,33.89,2.81,50.31,6.87,18.95,4.68,38.55,9.52,58.95,6.31,18.86-2.97,27.42-12.73,34.29-20.58,5.45-6.22,9.76-11.14,17.21-9.91,7.62,1.26,9.4,9.11,11.28,17.43,2.53,11.17,5.37,23.85,23.14,23.4,20.8-.51,26.58-11.77,33.28-24.81,5.68-11.06,12.12-23.6,29.56-30.32,13.72-5.28,24.19-.15,35.27,5.29,10.77,5.28,22.97,11.27,40.07,8.44,22.96-3.79,35.27,11.48,45.16,23.75,6.52,8.08,12.15,15.07,19.12,14.48,7.72-.65,16.82-10.77,28.64-31.84,14.19-25.29,20.3-31.5,43.45-29.57,25.1,2.09,35.58,10.81,45.71,19.23,6.58,5.47,13.39,11.13,24.16,14.78,11.25,3.81,19.86-1.4,28.99-6.92,6.84-4.14,13.92-8.42,22.56-9.18,9.77-.87,20.19,3.04,31.82,11.95,41.03,31.43,65.65,24.41,91.71,16.97,19.7-5.62,40.08-11.43,68.53-.16,.1,.04,.15,.16,.11,.26-.04,.1-.16,.15-.26,.11-28.32-11.22-48.63-5.43-68.27,.18-26.16,7.47-50.88,14.52-92.06-17.04-25.79-19.76-40.1-11.11-53.93-2.74-9.2,5.57-17.9,10.83-29.32,6.96-10.84-3.67-17.67-9.36-24.28-14.85-10.08-8.39-20.51-17.06-45.49-19.14-12.12-1.01-19.15,.3-25.09,4.67-5.92,4.36-10.7,11.74-17.97,24.7-12.06,21.49-20.99,31.38-28.96,32.05-7.19,.6-12.88-6.46-19.47-14.63-9.82-12.19-22.06-27.36-44.78-23.6-17.23,2.84-29.49-3.17-40.31-8.48-11-5.4-21.39-10.49-34.95-5.27-17.29,6.66-23.7,19.13-29.35,30.13-6.47,12.61-12.59,24.51-33.63,25.03-.31,0-.61,.01-.91,.01Z"/>
      </g>
      <g class="cls-59">
        <path class="cls-24" d="M195.92,84.63c-18.33,0-21.04-13.12-23.43-24.71-1.8-8.71-3.35-16.23-10.86-17.32-7.04-1.02-11.12,3.7-16.3,9.69-6.75,7.8-15.15,17.52-34.02,21.06-20.54,3.86-40.72-1.2-60.25-6.1C34.44,63.09,17.26,58.79,.22,60.16c-.11,0-.21-.07-.22-.18,0-.11,.07-.21,.18-.22,17.11-1.38,34.32,2.93,50.96,7.1,19.48,4.88,39.63,9.93,60.08,6.09,18.74-3.52,27.09-13.17,33.8-20.93,5.26-6.08,9.42-10.88,16.66-9.83,7.79,1.14,9.44,9.15,11.2,17.64,2.36,11.44,5.04,24.39,23.05,24.39,.12,0,.25,0,.38,0,20.5-.2,26.25-12.7,32.33-25.94,5.65-12.29,11.49-25,28.77-31.26,13.6-4.93,23.88,.74,34.76,6.74,10.91,6.02,23.27,12.84,40.92,9.66,23.34-4.21,36.21,10.77,46.56,22.81,6.8,7.91,12.67,14.75,19.74,13.98,7.88-.86,16.99-11.41,28.69-33.21,13.67-25.48,19.62-31.77,42.46-30.17,24.75,1.73,35.23,11.61,45.37,21.18,6.96,6.56,13.53,12.76,24.37,16.51,11.11,3.85,19.78-1.99,28.96-8.16,6.91-4.65,14.05-9.45,22.76-10.57,9.87-1.27,20.33,2.54,31.96,11.66,41.78,32.74,66.35,25.62,92.36,18.09,19.29-5.59,39.24-11.37,67.08-.18,.1,.04,.15,.16,.11,.26-.04,.1-.16,.15-.26,.11-27.71-11.14-47.59-5.38-66.82,.19-13.15,3.81-25.56,7.4-40.29,6.04-16.68-1.55-33.33-9.23-52.43-24.2-11.54-9.04-21.89-12.83-31.66-11.57-8.62,1.11-15.72,5.89-22.59,10.51-9.26,6.23-18.01,12.12-29.31,8.21-10.92-3.78-17.83-10.29-24.51-16.59-10.09-9.51-20.52-19.35-45.12-21.07-22.59-1.58-28.51,4.67-42.08,29.96-11.93,22.23-20.87,32.53-29,33.42-7.28,.79-13.21-6.11-20.09-14.11-10.28-11.96-23.07-26.85-46.18-22.68-17.79,3.21-30.22-3.65-41.18-9.7-10.8-5.96-20.99-11.58-34.43-6.72-17.12,6.2-22.93,18.83-28.54,31.05-6.13,13.35-11.93,25.97-32.69,26.17-.13,0-.26,0-.38,0Z"/>
      </g>
      <g class="cls-58">
        <path class="cls-30" d="M197.48,85.58c-.08,0-.15,0-.23,0-19.27-.09-21.84-13.71-24.1-25.73-1.67-8.87-3.11-16.53-10.77-17.5-6.84-.86-10.57,3.53-15.75,9.6-6.58,7.72-14.77,17.32-33.52,21.42-20.56,4.49-41.3-.78-61.35-5.87C34.9,63.22,17.47,58.79,.22,60.16c-.12,.02-.21-.07-.22-.18,0-.11,.07-.21,.18-.22,17.33-1.38,34.78,3.06,51.66,7.35,20.01,5.08,40.69,10.34,61.17,5.87,18.61-4.07,26.76-13.62,33.3-21.29,5.06-5.94,9.06-10.63,16.11-9.74,7.95,1,9.49,9.17,11.12,17.82,2.23,11.86,4.77,25.31,23.71,25.4,.07,0,.15,0,.22,0,20.06,0,25.46-13.16,31.18-27.09,5.33-12.97,10.84-26.38,27.94-32.17,13.52-4.58,23.63,1.62,34.33,8.19,11.56,7.09,23.52,14.43,41.68,10.89,23.71-4.62,37.16,10.07,47.96,21.87,7.09,7.75,13.23,14.46,20.38,13.49,8.15-1.09,17.01-11.76,28.72-34.6,13.18-25.71,19.44-32.01,41.47-30.78,24.45,1.37,34.95,12.43,45.09,23.13,7.01,7.39,13.63,14.38,24.51,18.22,10.98,3.88,19.69-2.56,28.91-9.39,6.97-5.16,14.18-10.49,22.97-11.97,9.97-1.68,20.48,2.04,32.11,11.36,19.36,15.52,36.16,23.52,52.85,25.21,14.72,1.48,27.07-2.15,40.13-5.99,18.89-5.56,38.42-11.31,65.67-.19,.1,.04,.15,.16,.11,.26-.04,.1-.16,.15-.26,.11-27.11-11.06-46.58-5.33-65.4,.21-12.53,3.69-25.47,7.5-40.28,6.01-16.77-1.69-33.64-9.73-53.06-25.29-11.54-9.25-21.94-12.94-31.79-11.28-8.69,1.46-15.86,6.77-22.8,11.89-9.31,6.89-18.11,13.39-29.28,9.44-10.97-3.88-17.62-10.9-24.67-18.32-10.09-10.64-20.53-21.65-44.83-23.01-21.8-1.22-28,5.04-41.09,30.56-11.78,22.96-20.73,33.7-29.02,34.81-7.38,.99-13.56-5.78-20.73-13.61-10.73-11.73-24.09-26.33-47.58-21.75-18.32,3.57-30.88-4.14-41.97-10.94-10.62-6.51-20.64-12.67-33.99-8.15-16.93,5.73-22.4,19.06-27.69,31.95-5.77,14.06-11.23,27.34-31.55,27.34Z"/>
      </g>
      <g class="cls-60">
        <path class="cls-26" d="M199.03,86.54c-.28,0-.55,0-.83,0-19.87-.39-22.27-14.41-24.38-26.78-1.54-9.02-2.87-16.82-10.69-17.65-6.63-.7-10.22,3.58-15.19,9.51-6.07,7.24-14.39,17.16-33.04,21.78-20.58,5.18-41.88-.32-62.46-5.63C35.35,63.35,17.68,58.79,.22,60.16c-.12,0-.21-.07-.21-.18,0-.11,.07-.21,.18-.21,17.53-1.38,35.23,3.19,52.35,7.61,20.54,5.3,41.78,10.79,62.27,5.63,18.52-4.58,26.79-14.45,32.83-21.65,4.86-5.8,8.7-10.38,15.53-9.65,8.12,.86,9.47,8.79,11.04,17.98,2.09,12.22,4.45,26.06,24,26.45,.27,0,.55,0,.82,0,19.33,0,24.37-13.74,29.7-28.27,5.01-13.64,10.18-27.74,27.08-33.06,13.46-4.24,23.42,2.49,33.96,9.61,11.66,7.88,23.73,16.04,42.38,12.13,24.08-5.04,38.09,9.36,49.35,20.93,7.39,7.6,13.78,14.16,21.05,13,8.32-1.33,17.18-12.43,28.72-35.99,6.15-12.56,10.86-20.77,16.71-25.57,5.61-4.6,12.5-6.29,23.77-5.82,24.19,1,34.7,13.25,44.86,25.09,7.06,8.23,13.73,16,24.62,19.93,10.83,3.91,19.58-3.14,28.84-10.6,13.77-11.09,29.37-23.66,55.46-2.31,19.43,15.9,36.92,24.5,53.48,26.3,14.8,1.61,27.66-2.24,40.1-5.96,18.49-5.54,37.62-11.26,64.28-.22,.1,.04,.15,.16,.11,.26-.04,.1-.16,.15-.26,.11-26.53-10.99-45.58-5.29-64.01,.23-12.48,3.74-25.38,7.6-40.26,5.98-16.64-1.81-34.2-10.44-53.69-26.39-11.55-9.45-22-13.04-31.94-10.98-8.77,1.82-16.01,7.65-23.01,13.29-9.35,7.53-18.19,14.65-29.23,10.66-10.99-3.97-17.69-11.78-24.79-20.05-10.1-11.78-20.55-23.96-44.57-24.95-21.48-.89-27.51,5.46-40.11,31.16-11.61,23.69-20.56,34.86-29.02,36.21-7.47,1.19-13.93-5.44-21.4-13.12-11.19-11.5-25.12-25.81-48.98-20.82-18.82,3.94-31.5-4.63-42.69-12.19-10.46-7.07-20.34-13.75-33.62-9.56-16.71,5.27-21.85,19.27-26.82,32.82-5.38,14.67-10.47,28.53-30.07,28.53Z"/>
      </g>
      <g class="cls-56">
        <path class="cls-25" d="M200.47,87.51c-.44,0-.88,0-1.33-.02-20.47-.7-22.7-15.12-24.66-27.85-1.41-9.17-2.64-17.09-10.6-17.77-6.43-.55-9.87,3.62-14.64,9.4-5.91,7.16-14.01,16.98-32.53,22.15-20.58,5.83-41.43,.37-63.5-5.4C35.85,63.48,17.91,58.79,.22,60.16c-.12,0-.21-.07-.21-.18,0-.11,.07-.21,.18-.21,17.76-1.39,35.74,3.32,53.12,7.86,22.02,5.76,42.82,11.2,63.29,5.4,18.4-5.14,26.45-14.89,32.33-22.02,4.85-5.87,8.34-10.12,14.98-9.55,8.28,.71,9.52,8.77,10.96,18.11,1.94,12.57,4.14,26.82,24.28,27.51,19.79,.69,24.58-13.96,29.66-29.46,4.68-14.29,9.52-29.07,26.19-33.93,13.41-3.91,23.24,3.35,33.65,11.03,11.75,8.68,23.9,17.65,43.03,13.39,24.44-5.45,39.03,8.66,50.75,19.99,7.71,7.45,14.36,13.89,21.74,12.53,8.49-1.56,17.34-13.1,28.7-37.39,12.01-25.68,18.28-32.54,39.5-31.99,23.96,.63,34.48,14.06,44.65,27.05,7.1,9.06,13.8,17.62,24.7,21.64,10.68,3.94,19.46-3.71,28.77-11.8,13.93-12.12,29.72-25.86,55.85-4.02,19.75,16.5,37.44,25.47,54.09,27.41,14.87,1.73,27.67-2.17,40.06-5.94,18.11-5.51,36.83-11.22,62.91-.24,.1,.04,.15,.16,.11,.26-.04,.1-.16,.15-.26,.11-25.95-10.92-44.61-5.24-62.64,.26-12.42,3.78-25.27,7.69-40.22,5.95-16.72-1.95-34.48-10.95-54.3-27.5-11.56-9.66-22.06-13.16-32.1-10.68-8.84,2.18-16.16,8.55-23.23,14.7-9.39,8.17-18.26,15.9-29.17,11.87-11-4.06-17.74-12.66-24.87-21.77-10.12-12.92-20.58-26.27-44.35-26.9-21-.56-27.2,6.27-39.12,31.76-11.43,24.42-20.37,36.02-28.99,37.61-7.58,1.39-14.31-5.11-22.09-12.64-11.65-11.27-26.14-25.29-50.38-19.89-8.63,1.92-16.68,1.3-24.59-1.92-6.98-2.84-12.97-7.26-18.76-11.54-10.32-7.62-20.07-14.82-33.3-10.97-16.47,4.8-21.27,19.48-25.92,33.67-5.01,15.29-9.74,29.75-28.72,29.75Z"/>
      </g>
      <g class="cls-57">
        <path class="cls-33" d="M201.83,88.48c-.57,0-1.15-.01-1.75-.04-9.39-.46-15.84-3.76-19.71-10.08-3.38-5.51-4.36-12.6-5.23-18.87-1.29-9.31-2.4-17.35-10.52-17.87-6.24-.4-9.53,3.66-14.1,9.29-5.75,7.09-13.62,16.79-32.02,22.52-20.55,6.47-41.91,.82-64.51-5.16C36.37,63.6,18.15,58.78,.22,60.16c-.11,0-.21-.07-.21-.18,0-.11,.07-.21,.18-.21,18.01-1.39,36.26,3.44,53.91,8.12,22.55,5.97,43.84,11.61,64.29,5.17,18.28-5.7,26.11-15.35,31.83-22.39,4.64-5.72,8-9.86,14.44-9.44,8.44,.55,9.57,8.73,10.89,18.22,1.79,12.93,3.82,27.59,24.56,28.6,19.59,.95,24.08-14.41,28.81-30.67,4.35-14.94,8.85-30.39,25.29-34.78,13.39-3.58,23.1,4.2,33.38,12.44,11.82,9.48,24.05,19.27,43.63,14.65,24.8-5.86,39.96,7.95,52.14,19.06,8.02,7.31,14.96,13.63,22.46,12.06,8.66-1.81,17.5-13.78,28.66-38.8,11.54-25.85,17.64-32.84,38.51-32.6,23.73,.26,34.27,14.88,44.46,29.01,7.14,9.9,13.88,19.25,24.76,23.35,10.53,3.96,19.34-4.27,28.68-12.99,14.09-13.16,30.06-28.08,56.25-5.75,20.07,17.11,37.96,26.44,54.69,28.52,14.93,1.86,27.68-2.09,40-5.91,17.72-5.5,36.05-11.18,61.58-.27,.1,.04,.15,.16,.11,.26-.04,.1-.16,.15-.26,.11-25.39-10.85-43.65-5.19-61.3,.29-12.37,3.83-25.15,7.8-40.17,5.93-16.81-2.09-34.76-11.46-54.9-28.62-11.58-9.87-22.14-13.27-32.27-10.38-8.92,2.55-16.31,9.45-23.45,16.12-9.43,8.8-18.33,17.12-29.09,13.07-10.99-4.14-17.77-13.54-24.94-23.49-10.13-14.06-20.61-28.59-44.14-28.85-.32,0-.63,0-.94,0-19.89,0-25.92,7.1-37.19,32.36-11.22,25.15-20.15,37.19-28.95,39.03-7.7,1.61-14.7-4.77-22.81-12.16-12.11-11.04-27.18-24.77-51.78-18.96-19.76,4.67-32.07-5.19-43.97-14.73-10.2-8.17-19.83-15.89-33.02-12.36-16.22,4.34-20.68,19.67-25.01,34.5-4.64,15.93-9.03,31-27.47,31Z"/>
      </g>
      <g class="cls-54">
        <path class="cls-32" d="M203.12,89.45c-.68,0-1.38-.02-2.1-.07-21.67-1.38-23.64-17.29-25.22-30.07-1.17-9.44-2.17-17.59-10.43-17.94-6.03-.24-9.2,3.7-13.56,9.18-5.58,7.01-13.23,16.61-31.51,22.9-20.52,7.13-42.37,1.27-65.5-4.92C36.91,63.73,18.4,58.78,.22,60.16c-.1,.01-.21-.07-.21-.18,0-.11,.07-.21,.18-.21,18.25-1.39,36.79,3.57,54.73,8.38,23.07,6.18,44.86,12.02,65.27,4.93,18.17-6.26,25.77-15.8,31.33-22.77,4.44-5.57,7.64-9.6,13.89-9.33,8.59,.37,9.62,8.68,10.81,18.29,1.64,13.3,3.51,28.37,24.85,29.72,19.42,1.24,23.58-14.86,27.98-31.91,4.02-15.57,8.18-31.67,24.37-35.61,13.38-3.25,22.98,5.05,33.14,13.84,11.89,10.28,24.18,20.91,44.19,15.92,25.15-6.27,40.88,7.25,53.53,18.12,8.35,7.18,15.57,13.38,23.2,11.6,8.83-2.06,17.65-14.46,28.6-40.21,10.9-25.63,17.14-33.09,37.52-33.2,.09,0,.19,0,.28,0,23.33,0,33.84,15.75,44.01,30.98,7.17,10.74,13.94,20.88,24.8,25.06,10.37,3.99,19.21-4.83,28.58-14.16,14.25-14.21,30.41-30.32,56.67-7.5,20.39,17.72,38.47,27.42,55.27,29.64,14.99,1.98,27.67-2.02,39.93-5.89,17.35-5.48,35.29-11.15,60.27-.31,.1,.04,.15,.16,.1,.26-.04,.1-.16,.15-.26,.1-24.84-10.78-42.71-5.13-59.99,.32-12.3,3.89-25.03,7.91-40.1,5.91-16.89-2.24-35.04-11.96-55.49-29.74-25.98-22.58-41.99-6.61-56.12,7.48-9.46,9.43-18.39,18.33-29,14.25-10.98-4.22-17.79-14.42-24.99-25.21-10.11-15.14-20.56-30.8-43.68-30.8-.09,0-.18,0-.28,0-20.14,.11-26.33,7.52-37.15,32.96-11.01,25.88-19.91,38.35-28.88,40.45-7.82,1.83-15.11-4.44-23.55-11.69-12.57-10.81-28.22-24.25-53.17-18.04-20.21,5.04-32.59-5.66-44.55-16-10.09-8.72-19.61-16.96-32.79-13.76-15.96,3.88-20.08,19.86-24.07,35.32-4.28,16.58-8.34,32.27-26.3,32.27Z"/>
      </g>
      <g class="cls-55">
        <path class="cls-29" d="M204.37,90.43c-.77,0-1.57-.03-2.4-.1-22.27-1.74-24.06-18.09-25.5-31.23-1.05-9.56-1.95-17.81-10.35-17.99-.09,0-.18,0-.27,0-5.68,0-8.66,3.81-12.76,9.06-5.42,6.93-12.83,16.43-30.99,23.29-20.47,7.78-42.81,1.73-66.47-4.68C37.45,63.86,18.64,58.77,.22,60.16c-.11,.01-.21-.07-.21-.18,0-.11,.07-.21,.18-.21,18.51-1.4,37.34,3.7,55.56,8.64,23.59,6.39,45.87,12.43,66.22,4.69,18.06-6.82,25.43-16.27,30.82-23.16,4.23-5.42,7.29-9.32,13.35-9.21,8.75,.18,9.67,8.6,10.73,18.34,.72,6.53,1.53,13.94,4.89,19.79,3.85,6.7,10.47,10.32,20.24,11.08,19.26,1.5,23.11-15.33,27.17-33.16,3.69-16.19,7.5-32.94,23.44-36.42,13.37-2.92,22.87,5.9,32.94,15.24,11.94,11.08,24.29,22.54,44.73,17.19,25.5-6.67,41.81,6.56,54.92,17.19,8.69,7.05,16.2,13.14,23.96,11.14,9-2.32,17.79-15.16,28.51-41.63,4.89-12.08,9.3-21.22,14.92-26.59,5.14-4.9,11.4-6.99,21.6-7.22,.35,0,.69-.01,1.03-.01,22.61,0,33.02,16.74,43.09,32.94,7.2,11.58,14,22.51,24.84,26.77,10.21,4.01,19.08-5.38,28.46-15.32,14.42-15.27,30.76-32.58,57.09-9.25,20.7,18.34,38.97,28.4,55.85,30.77,15.05,2.11,27.65-1.95,39.85-5.88,16.98-5.47,34.53-11.12,58.98-.35,.1,.04,.15,.16,.1,.26-.05,.1-.16,.15-.26,.1-24.3-10.71-41.79-5.08-58.69,.36-12.24,3.94-24.89,8.02-40.03,5.89-16.96-2.38-35.3-12.48-56.06-30.87-26.04-23.07-42.24-5.91-56.54,9.23-7.92,8.39-15.48,16.4-23.86,16.4-1.65,0-3.32-.31-5.04-.98-10.96-4.3-17.79-15.29-25.03-26.93-10.02-16.11-20.37-32.76-42.76-32.76-.34,0-.68,0-1.02,.01-19.79,.44-25.8,7.95-36.17,33.56-10.77,26.6-19.65,39.52-28.78,41.87-7.96,2.05-15.54-4.1-24.32-11.22-13.04-10.57-29.27-23.73-54.56-17.11-20.65,5.41-33.08-6.13-45.1-17.28-9.98-9.27-19.41-18.02-32.58-15.14-15.69,3.42-19.47,20.04-23.13,36.11-3.93,17.24-7.65,33.57-25.19,33.57Z"/>
      </g>
      <g class="cls-62">
        <path class="cls-11" d="M205.49,91.41c-.83,0-1.69-.04-2.58-.12-22.86-2.12-24.48-18.92-25.77-32.41-.97-10.05-1.73-18-10.23-18h-.03c-5.67,.01-8.53,3.75-12.49,8.93-5.25,6.86-12.43,16.25-30.48,23.68-20.41,8.44-43.25,2.19-67.42-4.43C38.01,64,18.91,58.77,.22,60.16c-.11,0-.21-.07-.21-.18,0-.11,.07-.21,.18-.21,18.77-1.41,37.9,3.84,56.41,8.9,24.11,6.6,46.88,12.84,67.16,4.45,17.95-7.39,25.09-16.73,30.31-23.55,4.03-5.27,6.94-9.07,12.81-9.09h.04c8.86,0,9.68,8.51,10.62,18.36,1.28,13.35,2.88,29.96,25.41,32.05,19.13,1.79,22.64-15.81,26.36-34.43,3.35-16.8,6.82-34.18,22.5-37.21,13.36-2.59,22.79,6.75,32.76,16.64,11.99,11.89,24.39,24.18,45.25,18.46,25.83-7.08,42.73,5.86,56.3,16.26,9.04,6.93,16.86,12.91,24.76,10.68,9.17-2.59,17.93-15.86,28.4-43.06,10.49-27.25,17.14-33.68,35.54-34.41,23.13-.93,33.74,17.29,43.99,34.89,7.23,12.41,14.05,24.13,24.84,28.48,10.06,4.02,18.94-5.94,28.35-16.47,9.05-10.14,19.31-21.64,32.23-22.33,8.08-.45,16.36,3.26,25.29,11.32,21.01,18.96,39.47,29.39,56.42,31.9,15.1,2.24,27.63-1.88,39.75-5.86,16.61-5.46,33.79-11.1,57.71-.39,.1,.05,.15,.16,.1,.26-.05,.1-.16,.15-.26,.1-23.77-10.65-40.88-5.03-57.42,.4-12.17,4-24.74,8.13-39.93,5.88-17.03-2.52-35.56-12.99-56.63-32-8.84-7.98-17.02-11.65-25-11.21-12.75,.69-22.96,12.12-31.96,22.2-9.5,10.64-18.48,20.7-28.79,16.58-10.92-4.4-17.78-16.18-25.04-28.65-10.19-17.5-20.74-35.6-43.63-34.69-18.19,.72-24.77,7.11-35.18,34.16-10.52,27.32-19.36,40.67-28.66,43.3-8.09,2.28-15.98-3.76-25.11-10.75-13.5-10.34-30.31-23.21-55.95-16.19-21.08,5.77-33.56-6.6-45.63-18.57-9.89-9.81-19.24-19.07-32.4-16.53-15.41,2.98-18.85,20.22-22.18,36.89-1.88,9.43-3.66,18.34-7.45,24.94-3.83,6.67-9.33,9.93-16.76,9.93Z"/>
      </g>
      <g class="cls-63">
        <path class="cls-12" d="M206.65,92.39c-.9,0-1.83-.05-2.79-.15-23.46-2.52-24.9-19.77-26.05-33.62-.85-10.18-1.53-18.23-10.17-17.98-5.48,.15-8.06,3.59-11.96,8.8-5.07,6.78-12.02,16.07-29.96,24.08-20.35,9.1-43.67,2.65-68.36-4.19C38.58,64.13,19.18,58.76,.21,60.16c-.1,0-.21-.07-.21-.18,0-.11,.07-.21,.18-.21,19.03-1.41,38.47,3.97,57.27,9.17,24.62,6.81,47.87,13.25,68.09,4.21,17.84-7.97,24.75-17.2,29.8-23.95,3.83-5.11,6.59-8.81,12.27-8.96,9.02-.26,9.75,8.37,10.58,18.35,1.14,13.71,2.57,30.77,25.7,33.26,19.01,2.05,22.19-16.3,25.55-35.72,3.02-17.4,6.14-35.4,21.55-37.98,13.38-2.24,22.71,7.6,32.59,18.02,12.03,12.69,24.47,25.81,45.74,19.75,26.17-7.51,43.64,5.14,57.69,15.3,9.4,6.81,17.53,12.68,25.58,10.22,9.34-2.86,18.06-16.57,28.26-44.46,5.34-14.59,9.27-22.19,14.04-27.11,4.89-5.05,10.84-7.34,20.51-7.9,22.94-1.33,33.56,18.07,43.83,36.84,7.26,13.26,14.11,25.78,24.87,30.2,9.9,4.05,18.38-5.97,28.2-17.57,9.23-10.9,19.69-23.25,32.89-24.09,8.04-.52,16.26,3.17,25.09,11.25,21.29,19.62,39.91,30.45,56.93,33.1,15.15,2.36,27.61-1.83,39.67-5.88,16.27-5.47,33.1-11.12,56.49-.47,.1,.05,.14,.16,.1,.27-.05,.1-.16,.14-.27,.1-23.25-10.59-40-4.96-56.2,.48-9.68,3.25-19.5,6.55-30.82,6.55-17.06,0-37.54-7.48-66.17-33.86-8.75-8.01-16.86-11.65-24.79-11.15-13.04,.83-23.44,13.11-32.61,23.95-9.51,11.23-18.49,21.84-28.66,17.68-10.89-4.47-17.78-17.05-25.07-30.38-10.21-18.66-20.78-37.96-43.46-36.63-17.85,1.04-24.24,7.53-34.2,34.76-10.25,28.02-19.05,41.81-28.52,44.71-8.24,2.52-16.44-3.41-25.93-10.28-13.97-10.11-31.37-22.7-57.34-15.24-21.51,6.12-34.03-7.09-46.14-19.86-9.8-10.34-19.07-20.11-32.24-17.9-15.14,2.54-18.23,20.39-21.23,37.66-1.63,9.39-3.31,19.1-6.95,25.96-3.65,6.87-8.98,10.24-16.25,10.24Z"/>
      </g>
      <path class="cls-13" d="M207.78,93.38c-.96,0-1.95-.06-2.98-.19-24.05-2.94-25.32-20.65-26.33-34.87-.73-10.27-1.32-18.38-10.09-17.93-5.31,.27-7.75,3.61-11.44,8.66-4.9,6.71-11.61,15.89-29.43,24.48-20.27,9.77-44.08,3.11-69.29-3.94C39.16,64.26,19.45,58.75,.21,60.16c-.1,0-.21-.07-.21-.18,0-.11,.07-.21,.18-.21,19.3-1.42,39.05,4.1,58.15,9.44,25.13,7.02,48.87,13.66,69.01,3.96,17.73-8.54,24.41-17.68,29.28-24.35,3.62-4.96,6.24-8.54,11.74-8.83,9.16-.47,9.79,8.23,10.51,18.3,1.01,14.08,2.26,31.61,25.98,34.5,18.89,2.31,21.74-16.79,24.75-37.02,2.68-17.99,5.45-36.59,20.61-38.74,13.38-1.9,22.64,8.46,32.44,19.42,12.07,13.5,24.55,27.47,46.22,21.02,26.5-7.88,44.56,4.47,59.07,14.4,9.77,6.69,18.22,12.46,26.42,9.76,9.51-3.14,18.18-17.29,28.11-45.9C451.93,8.45,458.51,1.45,476.02,.1c22.73-1.76,33.38,18.85,43.67,38.78,7.29,14.11,14.17,27.44,24.9,31.93,9.73,4.07,18.24-6.48,28.08-18.7,9.42-11.69,20.1-24.93,33.58-25.89,8-.56,16.12,3.12,24.83,11.26,48.21,45.06,73.04,36.56,97.05,28.34,15.9-5.44,32.35-11.07,55.24-.48,.1,.05,.14,.17,.1,.27-.05,.1-.17,.14-.27,.1-22.74-10.52-38.38-5.17-54.94,.49-24.12,8.25-49.07,16.79-97.46-28.43-8.63-8.06-16.65-11.72-24.53-11.15-13.31,.94-23.93,14.11-33.3,25.74-9.53,11.83-18.54,23-28.55,18.82-10.86-4.54-17.78-17.93-25.1-32.11C509.51,20.05,499.36,.4,478.68,.4c-.86,0-1.73,.03-2.63,.1-17.3,1.33-23.81,8.27-33.21,35.35-9.97,28.74-18.72,42.97-28.36,46.15-8.39,2.76-16.91-3.06-26.77-9.81-14.44-9.88-32.42-22.17-58.73-14.35-21.92,6.51-34.48-7.54-46.63-21.14-9.73-10.88-18.91-21.16-32.09-19.29-14.86,2.11-17.61,20.56-20.27,38.41-1.45,9.76-2.96,19.86-6.46,26.99-3.48,7.08-8.65,10.56-15.76,10.56Z"/>
    </g>
  </g>
</svg>